<?xml version="1.0" encoding="UTF-8"?>
<svg width="197px" height="93px" viewBox="0 0 197 93" version="1.1" xmlns="http://www.w3.org/2000/svg" xmlns:xlink="http://www.w3.org/1999/xlink">
    <!-- Generator: Sketch 52.2 (67145) - http://www.bohemiancoding.com/sketch -->
    <title>oscar-v2.0</title>
    <desc>Created with Sketch.</desc>
    <g id="Page-4" stroke="none" stroke-width="1" fill="none" fill-rule="evenodd">
        <g id="oscar-v2.0" transform="translate(-6.000000, -20.000000)">
            <path d="M74,56.4998262 C74,74.4491209 59.448851,89 41.4996523,89 C23.5504536,89 9,74.4491209 9,56.4998262 C9,38.5505314 23.5504536,24 41.4996523,24 C59.448851,24 74,38.5505314 74,56.4998262" id="Fill-4" fill="#FFFFFE"></path>
            <text id="scar" font-family="Optima-Regular, Optima" font-size="72" font-weight="normal" fill="#3B82C2">
                <tspan x="80" y="104">scar</tspan>
            </text>
            <g id="lens" transform="translate(56.000000, 70.000000) scale(1, -1) rotate(-82.000000) translate(-56.000000, -70.000000) translate(7.000000, 21.000000)">
                <path d="M28.1035357,33.2674057 C27.4956703,33.2674057 26.9212621,32.9006609 26.6870614,32.3017148 C23.3624671,23.7959771 15.2985652,18.2997242 6.14360479,18.2997242 C5.30435606,18.2997242 4.62358904,17.6210356 4.62358904,16.7835649 C4.62358904,15.9464455 5.30435606,15.2674057 6.14360479,15.2674057 C16.5607841,15.2674057 25.7365232,21.5213869 29.5193057,31.2000754 C29.824295,31.9802862 29.4375996,32.8592089 28.6554043,33.1634244 C28.4736786,33.2340333 28.2873745,33.2674057 28.1035357,33.2674057" id="Fill-7" fill="#A57EC6" transform="translate(17.123589, 24.267406) scale(-1, 1) translate(-17.123589, -24.267406) "></path>
                <polygon id="Fill-8" fill="#A57EC6" points="58 61.4690756 61.4697751 58 96 92.5302249 92.5305747 96"></polygon>
                <path d="M90.6465287,98 C88.7651135,98 86.8833489,97.2822336 85.4478264,95.8463515 L63.1535459,73.5522626 C60.2821514,70.6804982 60.2821514,66.0255003 63.1535459,63.1540854 C66.0252899,60.2819715 70.6802549,60.2819715 73.5516495,63.1540854 L95.8459299,85.4481743 C98.7180234,88.3199386 98.7180234,92.9745871 95.8459299,95.8463515 C94.4100579,97.2822336 92.5286427,98 90.6465287,98" id="Fill-9" fill="#A57EC6"></path>
                <path d="M93.2601812,89 C93.0708754,89 92.8812266,88.9276375 92.7371896,88.7835984 L88.2168272,84.2631714 C87.9277243,83.9744073 87.9277243,83.5059373 88.2168272,83.2168303 C88.5059301,82.9277232 88.9740505,82.9277232 89.2631534,83.2168303 L93.7831728,87.7372573 C94.0722757,88.0260213 94.0722757,88.4944914 93.7831728,88.7835984 C93.6384499,88.9276375 93.449487,89 93.2601812,89" id="Fill-10" fill="#FFFFFE"></path>
                <path d="M87.2619265,82 C87.0703496,82 86.8794569,81.9263867 86.7347479,81.7788177 C81.6292233,76.5721323 76.4097788,71.3538057 71.2218076,66.2666135 C70.930337,65.9814048 70.9255476,65.5133612 71.2108604,65.2219895 C71.4965152,64.929933 71.9641682,64.9258244 72.2549545,65.2110331 C77.4501098,70.3040459 82.6763963,75.5302474 87.788763,80.7437806 C88.0740758,81.0348099 88.0699705,81.5025111 87.7788421,81.788747 C87.6351594,81.9294682 87.4483719,82 87.2619265,82" id="Fill-11" fill="#FFFFFE"></path>
            </g>
            <text id="O" font-family="Optima-Regular, Optima" font-size="92" font-weight="normal" fill="#3B82C2">
                <tspan x="3" y="85">O</tspan>
            </text>
        </g>
    </g>
</svg>